<?xml version="1.0" encoding="UTF-8" standalone="no"?>
<!-- Created with Inkscape (http://www.inkscape.org/) -->
<svg xmlns:dc="http://purl.org/dc/elements/1.1/" xmlns:cc="http://creativecommons.org/ns#" xmlns:rdf="http://www.w3.org/1999/02/22-rdf-syntax-ns#" xmlns:svg="http://www.w3.org/2000/svg" xmlns="http://www.w3.org/2000/svg" xmlns:xlink="http://www.w3.org/1999/xlink" xmlns:sodipodi="http://sodipodi.sourceforge.net/DTD/sodipodi-0.dtd" xmlns:inkscape="http://www.inkscape.org/namespaces/inkscape" width="321" height="427" id="svg4997" sodipodi:version="0.32" inkscape:version="0.47 r22583" sodipodi:docname="clip.svg" inkscape:output_extension="org.inkscape.output.svg.inkscape" version="1.1">
  <defs id="defs4999">
    <linearGradient inkscape:collect="always" id="linearGradient6014">
      <stop style="stop-color:#ffffff;stop-opacity:1;" offset="0" id="stop6016"/>
      <stop style="stop-color:#ffffff;stop-opacity:0;" offset="1" id="stop6018"/>
    </linearGradient>
    <linearGradient inkscape:collect="always" id="linearGradient5928">
      <stop style="stop-color:#ffffff;stop-opacity:1;" offset="0" id="stop5930"/>
      <stop style="stop-color:#ffffff;stop-opacity:0;" offset="1" id="stop5932"/>
    </linearGradient>
    <linearGradient inkscape:collect="always" id="linearGradient5920">
      <stop style="stop-color:#000000;stop-opacity:1;" offset="0" id="stop5922"/>
      <stop style="stop-color:#000000;stop-opacity:0;" offset="1" id="stop5924"/>
    </linearGradient>
    <linearGradient inkscape:collect="always" id="linearGradient5910">
      <stop style="stop-color:#999999;stop-opacity:1;" offset="0" id="stop5912"/>
      <stop style="stop-color:#999999;stop-opacity:0;" offset="1" id="stop5914"/>
    </linearGradient>
    <linearGradient inkscape:collect="always" id="linearGradient5698">
      <stop style="stop-color:#ffffff;stop-opacity:1;" offset="0" id="stop5700"/>
      <stop style="stop-color:#ffffff;stop-opacity:0;" offset="1" id="stop5702"/>
    </linearGradient>
    <linearGradient inkscape:collect="always" id="linearGradient5658">
      <stop style="stop-color:#808080;stop-opacity:1;" offset="0" id="stop5660"/>
      <stop style="stop-color:#808080;stop-opacity:0;" offset="1" id="stop5662"/>
    </linearGradient>
    <linearGradient inkscape:collect="always" id="linearGradient5626">
      <stop style="stop-color:#ffffff;stop-opacity:1;" offset="0" id="stop5628"/>
      <stop style="stop-color:#ffffff;stop-opacity:0;" offset="1" id="stop5630"/>
    </linearGradient>
    <linearGradient inkscape:collect="always" id="linearGradient5615">
      <stop style="stop-color:#e3e2db;stop-opacity:1;" offset="0" id="stop5617"/>
      <stop style="stop-color:#e3e2db;stop-opacity:0;" offset="1" id="stop5619"/>
    </linearGradient>
    <linearGradient inkscape:collect="always" id="linearGradient5597">
      <stop style="stop-color:#112b00;stop-opacity:1;" offset="0" id="stop5599"/>
      <stop style="stop-color:#112b00;stop-opacity:0;" offset="1" id="stop5601"/>
    </linearGradient>
    <linearGradient inkscape:collect="always" id="linearGradient5583">
      <stop style="stop-color:#ffffff;stop-opacity:1;" offset="0" id="stop5585"/>
      <stop style="stop-color:#ffffff;stop-opacity:0;" offset="1" id="stop5587"/>
    </linearGradient>
    <linearGradient inkscape:collect="always" id="linearGradient5569">
      <stop style="stop-color:#112b00;stop-opacity:1;" offset="0" id="stop5571"/>
      <stop style="stop-color:#112b00;stop-opacity:0;" offset="1" id="stop5573"/>
    </linearGradient>
    <inkscape:perspective sodipodi:type="inkscape:persp3d" inkscape:vp_x="0 : 526.18109 : 1" inkscape:vp_y="0 : 1000 : 0" inkscape:vp_z="744.09448 : 526.18109 : 1" inkscape:persp3d-origin="372.04724 : 350.78739 : 1" id="perspective5005"/>
    <linearGradient inkscape:collect="always" xlink:href="#linearGradient5569" id="linearGradient5579" x1="240.41631" y1="556.73859" x2="244.27956" y2="380.58453" gradientUnits="userSpaceOnUse"/>
    <linearGradient inkscape:collect="always" xlink:href="#linearGradient5583" id="linearGradient5589" x1="211.23499" y1="343.70288" x2="211.235" y2="396.35678" gradientUnits="userSpaceOnUse" gradientTransform="matrix(1.0271967,0,0,1,-6.84643,-4)"/>
    <linearGradient inkscape:collect="always" xlink:href="#linearGradient5597" id="linearGradient5603" x1="116.21638" y1="553.83405" x2="116.2334" y2="528.73315" gradientUnits="userSpaceOnUse"/>
    <linearGradient inkscape:collect="always" xlink:href="#linearGradient5597" id="linearGradient5605" x1="362.83676" y1="553.83405" x2="363.31134" y2="528.11365" gradientUnits="userSpaceOnUse"/>
    <linearGradient inkscape:collect="always" xlink:href="#linearGradient5597" id="linearGradient5607" x1="239.53242" y1="558.66229" x2="239.53242" y2="542.8739" gradientUnits="userSpaceOnUse"/>
    <linearGradient inkscape:collect="always" xlink:href="#linearGradient5597" id="linearGradient5611" gradientUnits="userSpaceOnUse" x1="116.21638" y1="507.37473" x2="116.2334" y2="528.73315"/>
    <linearGradient inkscape:collect="always" xlink:href="#linearGradient5615" id="linearGradient5621" x1="112.74125" y1="507.85913" x2="112.12179" y2="537.59308" gradientUnits="userSpaceOnUse"/>
    <linearGradient inkscape:collect="always" xlink:href="#linearGradient5626" id="linearGradient5632" x1="239.07745" y1="533.46259" x2="239.18385" y2="543.74744" gradientUnits="userSpaceOnUse"/>
    <linearGradient inkscape:collect="always" xlink:href="#linearGradient5597" id="linearGradient5650" gradientUnits="userSpaceOnUse" x1="116.21638" y1="553.83405" x2="116.2334" y2="528.73315"/>
    <linearGradient inkscape:collect="always" xlink:href="#linearGradient5597" id="linearGradient5652" gradientUnits="userSpaceOnUse" x1="116.21638" y1="507.37473" x2="116.2334" y2="528.73315"/>
    <linearGradient inkscape:collect="always" xlink:href="#linearGradient5615" id="linearGradient5654" gradientUnits="userSpaceOnUse" x1="112.74125" y1="507.85913" x2="112.12179" y2="537.59308"/>
    <linearGradient inkscape:collect="always" xlink:href="#linearGradient5658" id="linearGradient5664" x1="245.06419" y1="518.84344" x2="245.06419" y2="332.22055" gradientUnits="userSpaceOnUse"/>
    <linearGradient inkscape:collect="always" xlink:href="#linearGradient5698" id="linearGradient5704" x1="162.50302" y1="207.74773" x2="233.38911" y2="159.0871" gradientUnits="userSpaceOnUse"/>
    <linearGradient inkscape:collect="always" xlink:href="#linearGradient5910" id="linearGradient5916" x1="194.55069" y1="346.93277" x2="225.36034" y2="346.93277" gradientUnits="userSpaceOnUse"/>
    <linearGradient inkscape:collect="always" xlink:href="#linearGradient5920" id="linearGradient5926" x1="213.84564" y1="317.42056" x2="207.01016" y2="245.19699" gradientUnits="userSpaceOnUse"/>
    <linearGradient inkscape:collect="always" xlink:href="#linearGradient5928" id="linearGradient5934" x1="213.22237" y1="288.66489" x2="208.54121" y2="251.21562" gradientUnits="userSpaceOnUse"/>
    <linearGradient inkscape:collect="always" xlink:href="#linearGradient5920" id="linearGradient5940" gradientUnits="userSpaceOnUse" x1="213.84564" y1="317.42056" x2="207.01016" y2="245.19699"/>
    <linearGradient inkscape:collect="always" xlink:href="#linearGradient5928" id="linearGradient5942" gradientUnits="userSpaceOnUse" x1="213.22237" y1="288.66489" x2="208.54121" y2="251.21562"/>
    <filter inkscape:collect="always" id="filter5970" color-interpolation-filters="sRGB">
      <feGaussianBlur inkscape:collect="always" stdDeviation="3.7846535" id="feGaussianBlur5972"/>
    </filter>
    <filter inkscape:collect="always" id="filter6000" color-interpolation-filters="sRGB">
      <feGaussianBlur inkscape:collect="always" stdDeviation="4.590244" id="feGaussianBlur6002"/>
    </filter>
    <linearGradient inkscape:collect="always" xlink:href="#linearGradient6014" id="linearGradient6024" x1="250.42363" y1="161.79056" x2="250.42363" y2="214.28745" gradientUnits="userSpaceOnUse"/>
    <filter inkscape:collect="always" id="filter6026" color-interpolation-filters="sRGB">
      <feGaussianBlur inkscape:collect="always" stdDeviation="0.59790633" id="feGaussianBlur6028"/>
    </filter>
    <filter inkscape:collect="always" id="filter6030" color-interpolation-filters="sRGB">
      <feGaussianBlur inkscape:collect="always" stdDeviation="0.87418087" id="feGaussianBlur6032"/>
    </filter>
    <filter inkscape:collect="always" id="filter6034" color-interpolation-filters="sRGB">
      <feGaussianBlur inkscape:collect="always" stdDeviation="0.88161163" id="feGaussianBlur6036"/>
    </filter>
    <linearGradient inkscape:collect="always" xlink:href="#linearGradient5597" id="linearGradient6058" gradientUnits="userSpaceOnUse" x1="239.53242" y1="558.66229" x2="239.53242" y2="542.8739" gradientTransform="translate(305.46056,0)"/>
    <linearGradient inkscape:collect="always" xlink:href="#linearGradient5658" id="linearGradient6060" gradientUnits="userSpaceOnUse" x1="245.06419" y1="518.84344" x2="245.06419" y2="332.22055" gradientTransform="translate(305.46056,0)"/>
    <linearGradient inkscape:collect="always" xlink:href="#linearGradient5928" id="linearGradient6062" gradientUnits="userSpaceOnUse" x1="213.22237" y1="288.66489" x2="208.54121" y2="251.21562" gradientTransform="translate(305.46056,0)"/>
    <linearGradient inkscape:collect="always" xlink:href="#linearGradient5626" id="linearGradient6064" gradientUnits="userSpaceOnUse" x1="239.07745" y1="533.46259" x2="239.18385" y2="543.74744" gradientTransform="translate(305.46056,0)"/>
    <linearGradient inkscape:collect="always" xlink:href="#linearGradient5928" id="linearGradient6066" gradientUnits="userSpaceOnUse" x1="213.22237" y1="288.66489" x2="208.54121" y2="251.21562"/>
    <linearGradient inkscape:collect="always" xlink:href="#linearGradient6014" id="linearGradient6068" gradientUnits="userSpaceOnUse" x1="250.42363" y1="161.79056" x2="250.42363" y2="214.28745" gradientTransform="translate(305.46056,0)"/>
    <linearGradient inkscape:collect="always" xlink:href="#linearGradient5928" id="linearGradient6077" gradientUnits="userSpaceOnUse" gradientTransform="translate(305.46056,0)" x1="213.22237" y1="288.66489" x2="208.54121" y2="251.21562"/>
    <linearGradient inkscape:collect="always" xlink:href="#linearGradient5928" id="linearGradient6079" gradientUnits="userSpaceOnUse" x1="213.22237" y1="288.66489" x2="208.54121" y2="251.21562"/>
    <linearGradient inkscape:collect="always" xlink:href="#linearGradient6014" id="linearGradient6081" gradientUnits="userSpaceOnUse" gradientTransform="translate(305.46056,0)" x1="250.42363" y1="161.79056" x2="250.42363" y2="214.28745"/>
  </defs>
  <sodipodi:namedview id="base" pagecolor="#ffffff" bordercolor="#666666" borderopacity="1.0" inkscape:pageopacity="0.0" inkscape:pageshadow="2" inkscape:zoom="0.464971" inkscape:cx="443.02629" inkscape:cy="547.11577" inkscape:document-units="px" inkscape:current-layer="layer1" showgrid="false" inkscape:window-width="1278" inkscape:window-height="921" inkscape:window-x="0" inkscape:window-y="47" inkscape:window-maximized="0"/>
  <g inkscape:label="Livello 1" inkscape:groupmode="layer" id="layer1" transform="translate(0,-625.36218)">
    <g id="g6083" transform="translate(-79.424183,483.90114)">
      <g transform="matrix(0.8862273,0,0,0.8862273,-243.57909,57.93065)" id="g6070">
        <path sodipodi:nodetypes="cssssccssssccc" id="path6040" d="m 446.37685,517.48641 c 0,0 79.40981,-183.69419 60.64976,-262.63966 -5.76412,-24.25638 -64.46857,-40.48707 -54.04316,-63.13454 25.72426,-55.88168 180.47101,-56.39001 205.06097,0 10.41408,23.88169 -51.68473,38.66178 -59.09393,63.63961 -23.96585,80.79344 51.98225,276.7818 51.98225,276.7818 l -19.1929,12.12183 c 0,0 -79.27866,-205.35231 -54.00255,-289.91378 5.46493,-18.28298 50.96547,-28.93282 43.43656,-46.46702 -15.06589,-35.08719 -110.46708,-35.2949 -127.27922,-1.01015 -7.98103,16.27559 33.65686,29.73562 37.37564,47.47717 18.20786,86.86613 -70.24621,286.37825 -70.24621,286.37825 l -19.1929,-17.67767 4.54569,-5.55584 z" style="fill:#999999;fill-rule:evenodd;stroke:none"/>
        <path sodipodi:nodetypes="cssssccssssccc" id="path6048" d="m 450.37685,523.48641 c 0,0 79.40981,-189.69419 60.64976,-268.63966 -5.76412,-24.25638 -62.81339,-41.7215 -50.04316,-63.13454 25.72426,-43.13428 164.47101,-44.36617 189.06097,0 12.62999,22.78753 -49.68473,38.66178 -57.09393,63.63961 -23.96585,80.79344 57.98225,276.7818 57.98225,276.7818 l -19.1929,12.12183 c 0,0 -73.27866,-205.35231 -48.00255,-289.91378 5.46493,-18.28298 54.0176,-28.5555 47.43656,-46.46702 -15.87891,-43.21743 -129.5516,-46.14008 -145.27922,-1.01015 -5.96536,17.11742 35.65686,29.73562 39.37564,47.47717 18.20786,86.86613 -70.24621,286.37825 -70.24621,286.37825 l -13.1929,-17.67767 8.54569,0.44416 z" style="fill:#4d4d4d;fill-opacity:1;fill-rule:evenodd;stroke:none;filter:url(#filter6000)"/>
        <path sodipodi:nodetypes="cs" id="path6050" d="m 449.9077,528.07261 c 0,0 87.81268,-197.96295 63.52998,-280.86941" style="fill:none;stroke:url(#linearGradient6077);stroke-width:2;stroke-linecap:butt;stroke-linejoin:miter;stroke-miterlimit:4;stroke-opacity:1;stroke-dasharray:none;filter:url(#filter6034)"/>
        <path transform="matrix(-0.9998693,-0.01616953,-0.01616953,0.9998693,802.78918,17.668767)" style="fill:none;stroke:url(#linearGradient6079);stroke-width:2;stroke-linecap:butt;stroke-linejoin:miter;stroke-miterlimit:4;stroke-opacity:1;stroke-dasharray:none;filter:url(#filter6030)" d="m 144.44713,528.07261 c 0,0 87.81268,-197.96295 63.52998,-280.86941" id="path6054" sodipodi:nodetypes="cs"/>
        <path sodipodi:nodetypes="csss" id="path6056" d="m 485.56004,219.04479 c 0,0 -20.24897,-14.80881 -16.43765,-22.15509 24.00052,-46.2608 152.40358,-43.29278 173.66735,4.28808 3.10272,6.94279 -16.43765,19.29637 -16.43765,19.29637" style="fill:none;stroke:url(#linearGradient6081);stroke-width:4;stroke-linecap:butt;stroke-linejoin:miter;stroke-miterlimit:4;stroke-opacity:1;stroke-dasharray:none;filter:url(#filter6026)"/>
      </g>
      <path sodipodi:nodetypes="ccccssssccc" id="rect5007" d="m 87.88327,371.68397 305.06607,0 0,182.08672 c 0,0 -52.81518,0.20429 -70.58885,0 -10.58404,-2.9194 -15.21527,-18.19069 -26.30458,-18.56225 -12.49034,-0.41849 -15.80412,15.67556 -27.86041,18.56225 -16.66114,3.98924 -40.89763,3.92495 -57.5787,0 -11.67029,-2.74595 -13.80516,-18.09265 -25.88071,-17.67832 -10.66745,0.366 -16.07107,14.90098 -26.26397,17.67832 -15.7717,-0.28886 -70.58885,0 -70.58885,0 l 0,-182.08672 z" style="fill:#338000;fill-opacity:1;stroke:none"/>
      <path style="fill:url(#linearGradient5579);fill-opacity:1;stroke:none" d="m 87.88327,371.68397 305.06607,0 0,182.08672 c 0,0 -52.81518,0.20429 -70.58885,0 -10.58404,-2.9194 -15.21527,-18.19069 -26.30458,-18.56225 -12.49034,-0.41849 -15.80412,15.67556 -27.86041,18.56225 -16.66114,3.98924 -40.89763,3.92495 -57.5787,0 -11.67029,-2.74595 -13.80516,-18.09265 -25.88071,-17.67832 -10.66745,0.366 -16.07107,14.90098 -26.26397,17.67832 -15.7717,-0.28886 -70.58885,0 -70.58885,0 l 0,-182.08672 z" id="path5559" sodipodi:nodetypes="ccccssssccc"/>
      <rect y="373.15359" x="87.962952" height="19.20318" width="304.15359" id="rect5581" style="fill:url(#linearGradient5589);fill-opacity:1;stroke:none"/>
      <path sodipodi:nodetypes="ccccccccc" id="path5944" d="m 298.35428,372.92533 c 16.04094,79.37565 47.11789,159.20829 47.11789,159.20829 l -19.1929,12.12183 c 0,0 -33.86276,-87.71333 -50.26982,-172.09475 m -61.95905,0.93262 c -21.09551,83.29787 -58.48691,167.6266 -58.48691,167.6266 l -19.1929,-17.67767 4.54569,-5.55584 c 0,0 31.11942,-71.98679 49.79411,-145.19904" style="fill:#000000;fill-opacity:1;fill-rule:evenodd;stroke:none;filter:url(#filter5970)"/>
      <path sodipodi:nodetypes="cssssccssssccc" id="path5526" d="m 140.91628,517.48641 c 0,0 79.40981,-183.69419 60.64976,-262.63966 -5.76412,-24.25638 -64.46857,-40.48707 -54.04316,-63.13454 25.72426,-55.88168 180.47101,-56.39001 205.06097,0 10.41408,23.88169 -51.68473,38.66178 -59.09393,63.63961 -23.96585,80.79344 51.98225,276.7818 51.98225,276.7818 l -19.1929,12.12183 c 0,0 -79.27866,-205.35231 -54.00255,-289.91378 5.46493,-18.28298 50.96547,-28.93282 43.43656,-46.46702 -15.06589,-35.08719 -110.46708,-35.2949 -127.27922,-1.01015 -7.98103,16.27559 33.65686,29.73562 37.37564,47.47717 18.20786,86.86613 -70.24621,286.37825 -70.24621,286.37825 l -19.1929,-17.67767 4.54569,-5.55584 z" style="fill:#cccccc;fill-rule:evenodd;stroke:none"/>
      <path sodipodi:nodetypes="ccccc" id="path5015" d="m 206.57619,552.58921 c 14.13753,2.09663 22.50035,-9.25443 24.60661,-15.9099 l 17.45686,0 c 3.26299,6.61226 11.39561,18.34742 23.84899,15.9099 -23.65364,9.25666 -46.28531,6.8493 -65.91246,0 z" style="fill:#338000;fill-opacity:1;fill-rule:evenodd;stroke:none"/>
      <path style="fill:url(#linearGradient5607);fill-opacity:1;fill-rule:evenodd;stroke:none" d="m 206.57619,552.58921 c 14.13753,2.09663 22.50035,-9.25443 24.60661,-15.9099 l 17.45686,0 c 3.26299,6.61226 11.39561,18.34742 23.84899,15.9099 -23.65364,9.25666 -46.28531,6.8493 -65.91246,0 z" id="path5595" sodipodi:nodetypes="ccccc"/>
      <path style="fill:url(#linearGradient5664);fill-opacity:1;fill-rule:evenodd;stroke:none" d="m 140.91628,517.48641 c 0,0 79.40981,-183.69419 60.64976,-262.63966 -5.76412,-24.25638 -64.46857,-40.48707 -54.04316,-63.13454 25.72426,-55.88168 180.47101,-56.39001 205.06097,0 10.41408,23.88169 -51.68473,38.66178 -59.09393,63.63961 -23.96585,80.79344 51.98225,276.7818 51.98225,276.7818 l -19.1929,12.12183 c 0,0 -79.27866,-205.35231 -54.00255,-289.91378 5.46493,-18.28298 50.96547,-28.93282 43.43656,-46.46702 -15.06589,-35.08719 -110.46708,-35.2949 -127.27922,-1.01015 -7.98103,16.27559 33.65686,29.73562 37.37564,47.47717 18.20786,86.86613 -70.24621,286.37825 -70.24621,286.37825 l -19.1929,-17.67767 4.54569,-5.55584 z" id="path5656" sodipodi:nodetypes="cssssccssssccc"/>
      <path sodipodi:nodetypes="cssssccssssccc" id="path5974" d="m 144.91628,523.48641 c 0,0 79.40981,-189.69419 60.64976,-268.63966 -5.76412,-24.25638 -62.81339,-41.7215 -50.04316,-63.13454 25.72426,-43.13428 164.47101,-44.36617 189.06097,0 12.62999,22.78753 -49.68473,38.66178 -57.09393,63.63961 -23.96585,80.79344 57.98225,276.7818 57.98225,276.7818 l -19.1929,12.12183 c 0,0 -73.27866,-205.35231 -48.00255,-289.91378 5.46493,-18.28298 54.0176,-28.5555 47.43656,-46.46702 -15.87891,-43.21743 -129.5516,-46.14008 -145.27922,-1.01015 -5.96536,17.11742 35.65686,29.73562 39.37564,47.47717 18.20786,86.86613 -70.24621,286.37825 -70.24621,286.37825 l -13.1929,-17.67767 8.54569,0.44416 z" style="fill:#808080;fill-opacity:1;fill-rule:evenodd;stroke:none;filter:url(#filter6000)"/>
      <path sodipodi:nodetypes="cs" id="path5860" d="m 144.44713,528.07261 c 0,0 87.81268,-197.96295 63.52998,-280.86941" style="fill:none;stroke:url(#linearGradient5934);stroke-width:2;stroke-linecap:butt;stroke-linejoin:miter;stroke-miterlimit:4;stroke-opacity:1;stroke-dasharray:none;filter:url(#filter6034)"/>
      <g id="g5634">
        <path style="fill:#338000;fill-opacity:1;stroke:none" d="m 85.862965,517.18247 53.454195,0.68279 c 16.41682,10.32284 24.19268,22.22487 20.69195,36.18778 l -74.146145,0 0,-36.87057 z" id="rect5010" sodipodi:nodetypes="ccccc"/>
        <path sodipodi:nodetypes="ccccc" id="path5591" d="m 85.862965,517.18247 53.454195,0.68279 c 16.41682,10.32284 24.19268,22.22487 20.69195,36.18778 l -74.146145,0 0,-36.87057 z" style="fill:url(#linearGradient5603);fill-opacity:1;stroke:none"/>
        <path style="fill:url(#linearGradient5611);fill-opacity:1;stroke:none" d="m 85.862965,517.18247 53.454195,0.68279 c 16.41682,10.32284 24.19268,22.22487 20.69195,36.18778 l -74.146145,0 0,-36.87057 z" id="path5609" sodipodi:nodetypes="ccccc"/>
        <path style="fill:url(#linearGradient5621);fill-opacity:1;stroke:none" d="m 85.485123,527.06232 65.972207,0.30973 c 4.28754,4.43944 7.37326,8.87889 8.36268,13.31833 l -74.334887,0 0,-13.62806 z" id="rect5613" sodipodi:nodetypes="ccccc"/>
      </g>
      <path sodipodi:nodetypes="ccccc" id="path5624" d="m 231.24912,536.723 17.4323,-0.0449 c 1.8846,4.17889 4.16911,7.02476 6.52085,9.64652 l -29.77888,-0.11822 c 2.5727,-3.00342 4.72894,-6.07206 5.82573,-9.48337 z" style="fill:url(#linearGradient5632);fill-opacity:1;fill-rule:evenodd;stroke:none"/>
      <path transform="matrix(-0.9998693,-0.01616953,-0.01616953,0.9998693,497.32861,17.668767)" style="fill:none;stroke:url(#linearGradient5942);stroke-width:2;stroke-linecap:butt;stroke-linejoin:miter;stroke-miterlimit:4;stroke-opacity:1;stroke-dasharray:none;filter:url(#filter6030)" d="m 144.44713,528.07261 c 0,0 87.81268,-197.96295 63.52998,-280.86941" id="path5938" sodipodi:nodetypes="cs"/>
      <g transform="matrix(-1,0,0,1,480.37729,0)" id="g5640">
        <path sodipodi:nodetypes="ccccc" id="path5642" d="m 85.862965,517.18247 53.454195,0.68279 c 16.41682,10.32284 24.19268,22.22487 20.69195,36.18778 l -74.146145,0 0,-36.87057 z" style="fill:#338000;fill-opacity:1;stroke:none"/>
        <path style="fill:url(#linearGradient5650);fill-opacity:1;stroke:none" d="m 85.862965,517.18247 53.454195,0.68279 c 16.41682,10.32284 24.19268,22.22487 20.69195,36.18778 l -74.146145,0 0,-36.87057 z" id="path5644" sodipodi:nodetypes="ccccc"/>
        <path sodipodi:nodetypes="ccccc" id="path5646" d="m 85.862965,517.18247 53.454195,0.68279 c 16.41682,10.32284 24.19268,22.22487 20.69195,36.18778 l -74.146145,0 0,-36.87057 z" style="fill:url(#linearGradient5652);fill-opacity:1;stroke:none"/>
        <path sodipodi:nodetypes="ccccc" id="path5648" d="m 85.485123,527.06232 65.972207,0.30973 c 4.28754,4.43944 7.37326,8.87889 8.36268,13.31833 l -74.334887,0 0,-13.62806 z" style="fill:url(#linearGradient5654);fill-opacity:1;stroke:none"/>
      </g>
      <path sodipodi:nodetypes="csss" id="path6004" d="m 180.09947,219.04479 c 0,0 -20.24897,-14.80881 -16.43765,-22.15509 24.00052,-46.2608 152.40358,-43.29278 173.66735,4.28808 3.10272,6.94279 -16.43765,19.29637 -16.43765,19.29637" style="fill:none;stroke:url(#linearGradient6024);stroke-width:4;stroke-linecap:butt;stroke-linejoin:miter;stroke-miterlimit:4;stroke-opacity:1;stroke-dasharray:none;filter:url(#filter6026)"/>
    </g>
  </g>
  <metadata>
    <rdf:RDF>
      <cc:Work>
        <dc:format>image/svg+xml</dc:format>
        <dc:type rdf:resource="http://purl.org/dc/dcmitype/StillImage"/>
        <cc:license rdf:resource="http://creativecommons.org/licenses/publicdomain/"/>
        <dc:publisher>
          <cc:Agent rdf:about="http://openclipart.org/">
            <dc:title>Open Clip Art Library</dc:title>
          </cc:Agent>
        </dc:publisher>
        <dc:title>clip</dc:title>
        <dc:date>2011-09-23T21:20:03</dc:date>
        <dc:description/>
        <dc:source>http://openclipart.org/detail/161767/clip-by-perpaola</dc:source>
        <dc:creator>
          <cc:Agent>
            <dc:title>perpaola</dc:title>
          </cc:Agent>
        </dc:creator>
        <dc:subject>
          <rdf:Bag>
            <rdf:li>clip</rdf:li>
            <rdf:li>clip art</rdf:li>
            <rdf:li>clipart</rdf:li>
            <rdf:li>office</rdf:li>
          </rdf:Bag>
        </dc:subject>
      </cc:Work>
      <cc:License rdf:about="http://creativecommons.org/licenses/publicdomain/">
        <cc:permits rdf:resource="http://creativecommons.org/ns#Reproduction"/>
        <cc:permits rdf:resource="http://creativecommons.org/ns#Distribution"/>
        <cc:permits rdf:resource="http://creativecommons.org/ns#DerivativeWorks"/>
      </cc:License>
    </rdf:RDF>
  </metadata>
</svg>
